<?xml version="1.0" encoding="iso-8859-1"?>
<!-- Generator: Adobe Illustrator 16.0.0, SVG Export Plug-In . SVG Version: 6.00 Build 0)  -->
<!DOCTYPE svg PUBLIC "-//W3C//DTD SVG 1.1//EN" "http://www.w3.org/Graphics/SVG/1.1/DTD/svg11.dtd">
<svg version="1.1" id="Capa_1" xmlns="http://www.w3.org/2000/svg" xmlns:xlink="http://www.w3.org/1999/xlink" x="0px" y="0px"
	 width="90px" height="90px" viewBox="0 0 90 90" style="enable-background:new 0 0 90 90;" xml:space="preserve">
<g>
	<path id="Apple" fill="#ffffff" d="M49.645,6.817C52.877,3.017,58.34,0.19,62.848,0c0.575,5.279-1.541,10.565-4.669,14.374
		c-3.133,3.802-8.261,6.764-13.294,6.369C44.201,15.578,46.736,10.192,49.645,6.817z M75.291,78.827
		c-3.741,5.485-7.61,10.938-13.718,11.053c-6.012,0.114-7.938-3.571-14.799-3.571c-6.866,0-9.016,3.457-14.69,3.686
		c-5.897,0.222-10.382-5.926-14.152-11.387c-7.703-11.168-13.585-31.576-5.677-45.35c3.916-6.84,10.934-11.167,18.537-11.282
		c5.792-0.107,11.263,3.917,14.799,3.917c3.544,0,10.185-4.831,17.165-4.122c2.922,0.121,11.123,1.181,16.391,8.912
		c-0.417,0.274-9.789,5.745-9.676,17.141C69.585,61.438,81.362,65.961,81.5,66.023C81.392,66.343,79.616,72.482,75.291,78.827z"/>
</g>
<g>
</g>
<g>
</g>
<g>
</g>
<g>
</g>
<g>
</g>
<g>
</g>
<g>
</g>
<g>
</g>
<g>
</g>
<g>
</g>
<g>
</g>
<g>
</g>
<g>
</g>
<g>
</g>
<g>
</g>
</svg>
