<?xml version="1.0" encoding="utf-8"?>
<!-- Generator: Adobe Illustrator 16.0.0, SVG Export Plug-In . SVG Version: 6.00 Build 0)  -->
<!DOCTYPE svg PUBLIC "-//W3C//DTD SVG 1.1//EN" "http://www.w3.org/Graphics/SVG/1.1/DTD/svg11.dtd">
<svg version="1.1" id="Capa_1" xmlns="http://www.w3.org/2000/svg" xmlns:xlink="http://www.w3.org/1999/xlink" x="0px" y="0px"
	 width="18px" height="22px" viewBox="0 0 18 22" enable-background="new 0 0 18 22" xml:space="preserve">
<g>
	<g>
		<path fill-rule="evenodd" clip-rule="evenodd" fill="#9A9FBF" d="M16,22h2v-1.999h-2V22z M8,15h2v-1.999H8V15z M16,2.001h-2V1
			c0-0.552-0.448-1-1-1c-0.553,0-1,0.448-1,1v1H6V1c0-0.552-0.448-1-1-1C4.447,0,4,0.448,4,1v1H2c-1.104,0-2,0.895-2,2v16
			C0,21.105,0.896,22,2,22h12v-1.999H2V4h2v1c0,0.552,0.447,1,1,1c0.552,0,1-0.448,1-1V4h6v1c0,0.552,0.447,1,1,1
			c0.552,0,1-0.448,1-1V4h2v14h2V4C18,2.896,17.104,2.001,16,2.001z M5,18.002h8v-8H5V18.002z M7,12.002h4v4H7V12.002z"/>
	</g>
</g>
</svg>
