<?xml version="1.0" encoding="utf-8"?>
<!-- Generator: Adobe Illustrator 16.0.0, SVG Export Plug-In . SVG Version: 6.00 Build 0)  -->
<!DOCTYPE svg PUBLIC "-//W3C//DTD SVG 1.1//EN" "http://www.w3.org/Graphics/SVG/1.1/DTD/svg11.dtd">
<svg version="1.1" id="Capa_1" xmlns="http://www.w3.org/2000/svg" xmlns:xlink="http://www.w3.org/1999/xlink" x="0px" y="0px"
	 width="25px" height="16px" viewBox="0 0 25 16" enable-background="new 0 0 25 16" xml:space="preserve">
<g>
	<g>
		<path fill-rule="evenodd" clip-rule="evenodd" fill="#9A9FBF" d="M1,5.001c-0.553,0-1,0.384-1,0.857v4.285
			c0,0.474,0.447,0.857,1,0.857c0.552,0,1-0.384,1-0.857V5.858C2,5.385,1.552,5.001,1,5.001z"/>
	</g>
</g>
<rect x="11" y="7" fill="#9A9FBF" width="2" height="2"/>
<path fill="#9A9FBF" d="M11.002,11v0.002v2.438L6,10.531V5.489l5.002-2.926V5h2c0-1.947,0-3.419,0-3.419
	C13.002,0.58,12.563,0,11.87,0c-0.285,0-0.613,0.099-0.972,0.307L4,4.342v7.34l6.898,4.012C11.257,15.901,11.585,16,11.871,16
	c0.692,0,1.131-0.58,1.131-1.579c0,0,0-1.472,0-3.419c0-0.001,0-0.001,0-0.002H11.002z"/>
<polygon fill="#9A9FBF" points="23.586,3.746 20.758,6.574 17.93,3.746 16.516,5.16 19.344,7.988 16.516,10.817 17.93,12.23 
	20.758,9.402 23.586,12.23 25,10.817 22.172,7.988 25,5.16 "/>
</svg>
