<?xml version="1.0" encoding="utf-8"?>
<!-- Generator: Adobe Illustrator 16.0.0, SVG Export Plug-In . SVG Version: 6.00 Build 0)  -->
<!DOCTYPE svg PUBLIC "-//W3C//DTD SVG 1.1//EN" "http://www.w3.org/Graphics/SVG/1.1/DTD/svg11.dtd">
<svg version="1.1" id="Capa_1" xmlns="http://www.w3.org/2000/svg" xmlns:xlink="http://www.w3.org/1999/xlink" x="0px" y="0px"
	 width="18px" height="24px" viewBox="0 0 18 24" enable-background="new 0 0 18 24" xml:space="preserve">
<path fill="#9A9FBF" d="M14.5,2C15.328,2,16,2.671,16,3.5v17c0,0.828-0.672,1.5-1.5,1.5c-0.829,0-1.5-0.672-1.5-1.5v-17
	C13,2.671,13.671,2,14.5,2 M14.5,0C12.57,0,11,1.57,11,3.5v17c0,1.93,1.57,3.5,3.5,3.5s3.5-1.57,3.5-3.5v-17C18,1.57,16.43,0,14.5,0
	L14.5,0z"/>
<path fill="#9A9FBF" d="M3.5,0C1.57,0,0,1.57,0,3.5V12h2V3.5C2,2.671,2.671,2,3.5,2C4.328,2,5,2.671,5,3.5v17
	C5,21.328,4.328,22,3.5,22C2.671,22,2,21.328,2,20.5V18H0v2.5C0,22.43,1.57,24,3.5,24S7,22.43,7,20.5v-17C7,1.57,5.43,0,3.5,0z"/>
<rect y="14" fill="#9A9FBF" width="2" height="2"/>
</svg>
