<?xml version="1.0" encoding="utf-8"?>
<!-- Generator: Adobe Illustrator 16.0.0, SVG Export Plug-In . SVG Version: 6.00 Build 0)  -->
<!DOCTYPE svg PUBLIC "-//W3C//DTD SVG 1.1//EN" "http://www.w3.org/Graphics/SVG/1.1/DTD/svg11.dtd">
<svg version="1.1" id="Capa_1" xmlns="http://www.w3.org/2000/svg" xmlns:xlink="http://www.w3.org/1999/xlink" x="0px" y="0px"
	 width="14px" height="16px" viewBox="0 0 14 16" enable-background="new 0 0 14 16" xml:space="preserve">
<path fill="#9A9FBF" d="M12.355,5.332L4.548,0.545C3.975,0.196,3.392,0.021,2.809,0.021C1.413,0.021,0,1.115,0,3.205V6h2
	c0-2.392,0-2.796,0-2.796c0-0.749,0.314-1.184,0.809-1.184c0.204,0,0.438,0.074,0.694,0.229l7.815,4.792
	c0.879,0.533,0.924,1.406,0.044,1.939l-7.859,4.79C3.247,13.927,3.012,14,2.808,14C2.314,14,2,13.566,2,12.818c0,0,0-0.3,0-0.793
	c0-0.006,0-0.018,0-0.024H0v0.024v0.793C0,14.907,1.413,16,2.808,16c0.583,0,1.167-0.175,1.735-0.521l7.86-4.79
	C13.416,10.074,14,9.107,14,8.038C14.001,6.952,13.401,5.966,12.355,5.332z"/>
<rect y="8" fill="#9A9FBF" width="2" height="2"/>
</svg>
