<?xml version="1.0" encoding="utf-8"?>
<!-- Generator: Adobe Illustrator 16.0.0, SVG Export Plug-In . SVG Version: 6.00 Build 0)  -->
<!DOCTYPE svg PUBLIC "-//W3C//DTD SVG 1.1//EN" "http://www.w3.org/Graphics/SVG/1.1/DTD/svg11.dtd">
<svg version="1.1" id="Capa_1" xmlns="http://www.w3.org/2000/svg" xmlns:xlink="http://www.w3.org/1999/xlink" x="0px" y="0px"
	 width="24px" height="16px" viewBox="0 0 24 16" enable-background="new 0 0 24 16" xml:space="preserve">
<path fill="#9A9FBF" d="M11.645,5.332l7.807-4.787c0.574-0.349,1.157-0.524,1.74-0.524C22.587,0.021,24,1.115,24,3.205V6h-2
	c0-2.392,0-2.796,0-2.796c0-0.749-0.314-1.184-0.809-1.184c-0.204,0-0.438,0.074-0.694,0.229l-7.815,4.792
	c-0.879,0.533-0.924,1.406-0.044,1.939l7.859,4.79C20.753,13.927,20.988,14,21.191,14C21.686,14,22,13.566,22,12.818
	c0,0,0-0.3,0-0.793c0-0.006,0-0.018,0-0.024h2v0.024v0.793C24,14.907,22.588,16,21.191,16c-0.582,0-1.166-0.175-1.734-0.521
	l-7.86-4.79C10.584,10.074,10,9.107,10,8.038C9.999,6.952,10.599,5.966,11.645,5.332z"/>
<rect x="22" y="8" fill="#9A9FBF" width="2" height="2"/>
<path fill="#9A9FBF" d="M1.645,5.332l7.807-4.787c0.574-0.349,1.157-0.524,1.74-0.524C12.587,0.021,14,1.115,14,3.205v2.08l-2,1.343
	c0-0.284,0-0.506,0-0.616c0-2.403,0-2.807,0-2.807c0-0.749-0.314-1.184-0.809-1.184c-0.204,0-0.438,0.074-0.694,0.229L2.682,7.042
	C1.803,7.575,1.758,8.447,2.638,8.98l7.859,4.79C10.753,13.927,10.988,14,11.192,14C11.686,14,12,13.566,12,12.818
	c0,0,0-0.3,0-0.793c0-0.212,0-1.195,0-2.311c0.479,0.438,0.969,0.879,1,0.89c0.025,0.009,0.477,0.189,1,0.401v1.02v0.793
	C14,14.907,12.587,16,11.192,16c-0.583,0-1.167-0.175-1.735-0.521l-7.86-4.79C0.584,10.074,0,9.107,0,8.038
	C-0.001,6.952,0.599,5.966,1.645,5.332z"/>
</svg>
