<?xml version="1.0" encoding="utf-8"?>
<!-- Generator: Adobe Illustrator 16.0.0, SVG Export Plug-In . SVG Version: 6.00 Build 0)  -->
<!DOCTYPE svg PUBLIC "-//W3C//DTD SVG 1.1//EN" "http://www.w3.org/Graphics/SVG/1.1/DTD/svg11.dtd">
<svg version="1.1" id="Capa_1" xmlns="http://www.w3.org/2000/svg" xmlns:xlink="http://www.w3.org/1999/xlink" x="0px" y="0px"
	 width="24px" height="14px" viewBox="0 0 24 14" enable-background="new 0 0 24 14" xml:space="preserve">
<g>
	<g>
		<path fill="#c2c5d9" d="M18,1.991h-2v2h2c2.209,0,4,1.791,4,4s-1.791,4-4,4h-4v2h4c3.313,0,6-2.687,6-6S21.313,1.991,18,1.991z
			 M10,13.991h2v-2h-2V13.991z M7.985,1.991H6c-3.314,0-6,2.687-6,6s2.686,6,6,6h2v-2H6c-2.209,0-4-1.791-4-4s1.791-4,4-4h1.985
			v1.982L12,2.991L7.985,0.008V1.991z"/>
	</g>
</g>
</svg>
