<?xml version="1.0" encoding="utf-8"?>
<!-- Generator: Adobe Illustrator 16.0.0, SVG Export Plug-In . SVG Version: 6.00 Build 0)  -->
<!DOCTYPE svg PUBLIC "-//W3C//DTD SVG 1.1//EN" "http://www.w3.org/Graphics/SVG/1.1/DTD/svg11.dtd">
<svg version="1.1" xmlns="http://www.w3.org/2000/svg" xmlns:xlink="http://www.w3.org/1999/xlink" x="0px" y="0px" width="23px"
	 height="15px" viewBox="0 0 23 15" enable-background="new 0 0 23 15" xml:space="preserve">
<g id="Capa_1">
</g>
<g id="Capa_2">
	<g>
		<path fill="#1ed760" d="M13.166,3.426c-0.413,0.574-1.02,1.363-1.662,2.3c-0.002-0.002-0.004-0.005-0.006-0.008
			c-0.646-0.94-1.256-1.731-1.67-2.308C8.939,2.17,7.65,1.936,6.967,1.993H4.016v2l3.123-0.007c0.035-0.005,0.621-0.027,1.064,0.59
			C8.695,5.261,9.481,6.362,10.277,7.5c-0.796,1.138-1.582,2.239-2.074,2.924c-0.443,0.617-1.029,0.595-1.064,0.59l-3.123-0.007v2
			h2.95c0.684,0.058,1.973-0.177,2.862-1.417c0.414-0.576,1.023-1.367,1.669-2.308c0.002-0.003,0.004-0.006,0.006-0.009
			c0.642,0.936,1.25,1.727,1.663,2.301c0.891,1.238,2.18,1.474,2.863,1.416h2.949v-2l-3.123,0.008
			c-0.035,0.004-0.621,0.027-1.064-0.591c-0.489-0.682-1.271-1.775-2.063-2.907c0.792-1.132,1.573-2.226,2.063-2.907
			c0.443-0.618,1.029-0.595,1.064-0.59l3.123,0.007v-2h-2.949C15.346,1.952,14.057,2.187,13.166,3.426z"/>
		<rect y="11.003" fill="#1ed760" width="2" height="2"/>
		<polygon fill="#1ed760" points="18.985,0 18.985,5.966 23,2.983 		"/>
		<rect y="1.997" fill="#1ed760" width="2" height="2"/>
		<polygon fill="#1ed760" points="18.985,15 23,12.017 18.985,9.034 		"/>
	</g>
</g>
</svg>
