<?xml version="1.0" encoding="utf-8"?>
<!-- Generator: Adobe Illustrator 16.0.0, SVG Export Plug-In . SVG Version: 6.00 Build 0)  -->
<!DOCTYPE svg PUBLIC "-//W3C//DTD SVG 1.1//EN" "http://www.w3.org/Graphics/SVG/1.1/DTD/svg11.dtd">
<svg version="1.1" xmlns="http://www.w3.org/2000/svg" xmlns:xlink="http://www.w3.org/1999/xlink" x="0px" y="0px" width="26px"
	 height="16px" viewBox="0 0 26 16" enable-background="new 0 0 26 16" xml:space="preserve">
<g id="Capa_1">
	<g>
		<g>
			<path fill-rule="evenodd" clip-rule="evenodd" fill="#9A9FBF" d="M1,5.001c-0.553,0-1,0.384-1,0.857v4.285
				c0,0.474,0.447,0.857,1,0.857c0.552,0,1-0.384,1-0.857V5.858C2,5.385,1.552,5.001,1,5.001z"/>
		</g>
	</g>
</g>
<g id="Capa_3">
	<rect x="11" y="7" fill="#9A9FBF" width="2" height="2"/>
	<path fill="#9A9FBF" d="M11.002,11v0.002v2.438L6,10.531V5.489l5.002-2.926V5h2c0-1.947,0-3.419,0-3.419
		C13.002,0.58,12.563,0,11.87,0c-0.285,0-0.613,0.099-0.972,0.307L4,4.342v7.34l6.898,4.012C11.257,15.901,11.585,16,11.871,16
		c0.692,0,1.131-0.58,1.131-1.579c0,0,0-1.472,0-3.419c0-0.001,0-0.001,0-0.002H11.002z"/>
</g>
<g id="Capa_2">
	<path fill-rule="evenodd" clip-rule="evenodd" fill="#9A9FBF" d="M22.373,16.004C24.632,13.862,26,11.094,26,7.995
		C26,4.904,24.615,2.142,22.365,0l-1.062,1.086c1.98,1.82,3.235,4.246,3.235,6.909c0,2.659-1.251,5.081-3.227,6.901L22.373,16.004z"
		/>
	<path fill-rule="evenodd" clip-rule="evenodd" fill="#9A9FBF" d="M19.5,13.797c1.756-1.511,2.815-3.521,2.815-5.802
		c0-2.239-1.066-4.274-2.767-5.778l-0.946,1.146c1.404,1.188,2.295,2.824,2.295,4.633c0,1.845-0.926,3.511-2.381,4.703L19.5,13.797z
		"/>
	<path fill-rule="evenodd" clip-rule="evenodd" fill="#9A9FBF" d="M16.81,11.416c1.115-0.841,1.815-2.063,1.815-3.422
		c0-1.377-0.72-2.613-1.86-3.455L16.01,5.835c0.722,0.521,1.18,1.294,1.18,2.157c0,0.951-0.256,1.812-1.108,2.327L16.81,11.416z"/>
</g>
</svg>
